<svg viewBox="0 0 64 64" xmlns="http://www.w3.org/2000/svg" fill="none">
  <circle cx="32" cy="32" r="30" fill="rgba(212,168,67,0.06)" stroke="#d4a843" stroke-width="2"/>
  <circle cx="32" cy="32" r="23" stroke="#d4a843" stroke-width="0.75" opacity="0.3"/>
  <line x1="32" y1="32" x2="32"    y2="10"   stroke="#d4a843" stroke-width="1.5" stroke-linecap="round"/>
  <line x1="32" y1="32" x2="51.1"  y2="21"   stroke="#d4a843" stroke-width="1.5" stroke-linecap="round"/>
  <line x1="32" y1="32" x2="51.1"  y2="43"   stroke="#d4a843" stroke-width="1.5" stroke-linecap="round"/>
  <line x1="32" y1="32" x2="32"    y2="54"   stroke="#d4a843" stroke-width="1.5" stroke-linecap="round"/>
  <line x1="32" y1="32" x2="12.9"  y2="43"   stroke="#d4a843" stroke-width="1.5" stroke-linecap="round"/>
  <line x1="32" y1="32" x2="12.9"  y2="21"   stroke="#d4a843" stroke-width="1.5" stroke-linecap="round"/>
  <polygon points="32,10 51.1,21 51.1,43 32,54 12.9,43 12.9,21"
    stroke="#d4a843" stroke-width="0.75" opacity="0.45"/>
  <circle cx="32"  cy="10" r="2.5" fill="#d4a843"/>
  <circle cx="51.1" cy="21" r="2.5" fill="#d4a843"/>
  <circle cx="51.1" cy="43" r="2.5" fill="#d4a843"/>
  <circle cx="32"  cy="54" r="2.5" fill="#d4a843"/>
  <circle cx="12.9" cy="43" r="2.5" fill="#d4a843"/>
  <circle cx="12.9" cy="21" r="2.5" fill="#d4a843"/>
  <circle cx="32" cy="32" r="5"  stroke="#d4a843" stroke-width="1.5"/>
  <circle cx="32" cy="32" r="2"  fill="#d4a843"/>
</svg>
